/* XPM */
static char *_80cca05a5924a55b93011e153363c97[] = {
/* columns rows colors chars-per-pixel */
"32 32 10 1 ",
"  c #633202",
". c #262245",
"X c #E53A4A",
"o c #FAFFFF",
"O c #B02B36",
"+ c #C1D7DB",
"@ c #65EF42",
"# c #B6683C",
"$ c #E3B175",
"% c #118C60",
/* pixels */
"                                ",
"                                ",
"                                ",
"                                ",
"           ..........           ",
"        ....XoXXXXXX....        ",
"      ...XXXoooXXXXXXXX...      ",
"     ..XXXXXXoXXXoooXXXXX..     ",
"    ..ooXXXXXXXXXoooXXXXoo..    ",
"    .XooXXoXXXXXXoooXXXXXoX.    ",
"   ..XXXXXXXXXXooXXXXoXXXXX..   ",
"   .XXXoXXXoooXooXXXXXXooXXX.   ",
"   .XXoooXXoooXXXXXXXXXooXXX.   ",
"  ..XXXoXXXoooXXXXooXXXXXXXX..  ",
"  .OXXXXXXXXXXXoXXooXXXXXXXXO.  ",
"  .OOoXXXXXXXXXXXXXXXXXoXooOO.  ",
"  .OOOOOOOXXoXXXXXXXooOOO++OO.  ",
"  ...OOOOOO+++XXXXOO++OOOOO...  ",
"    ...OOOOO+OOOO+OOOOOOO...    ",
"      ....OOOOOOOOOOOO.......   ",
"         ..................@.   ",
"      ....############....@..   ",
"    ...XXoo############..@...   ",
"   ..XXXXooX$$$$$$.@$##..@.%.   ",
"   .OXXoXXXoO$$$$$$.@$##@.%..   ",
"   ..OOOOOOO$$$$$$$$.@$#@%..    ",
"    ...###$$$$$$$$$$.@$@%%.     ",
"     .##$##$$$$$$$$$$.@@%..     ",
"     .#$$$##$$$$$$$$#.@@%.      ",
"                                ",
"                                ",
"                                "
};
