/* XPM */
static char *dd03806324fa41c18f2365089dee69c3[] = {
/* columns rows colors chars-per-pixel */
"96 96 15 1 ",
"  c black",
". c white",
"X c #808080",
"o c #C0C0C0",
"O c gray88",
"+ c #909090",
"@ c gray94",
"# c #A0A0A0",
"$ c gray25",
"% c #D0D0D0",
"& c gray19",
"* c #606060",
"= c #202020",
"- c #101010",
"; c gray44",
/* pixels */
"                                                                                                ",
"                                                                                                ",
"                                                                                                ",
"                                                                                                ",
"                                                                                                ",
"                                                                                                ",
"                                                                                                ",
"                                                                                                ",
"                                                                                                ",
"                                                                                                ",
"                                                                                                ",
"                                                                                                ",
"                                                                                                ",
"    ....X      o...o    o..........X    ....X      o...o  ...............o    o..........X      ",
"    ....X      o...o    o..........X    ....X      o...o  ...............o    o..........X      ",
"    ....Oo+  oo@...o  oo@.#$$$$$$%.Oo+  ....X      o...o  ....#$$$$$$$$$$&  oo@.#$$$$$$%.Oo+    ",
"    ......o  ......o  ....X      o...o  ....X      o...o  ....X             ....X      o...o    ",
"    ......OXX......o  ....X      o...o  ....X      o...o  ....X             ....X      *XXX*    ",
"    ...............o  ....X      o...o  ....X      o...o  ....X             ....X               ",
"    ....Oo%..oo@...o  ....X      o...o  ....#$&  $$%...o  ....#$$$$$$$$=    oo@.#$$$$$$$$=      ",
"    ....X $..  o...o  ....X      o...o  ......o  ......o  .............X      o..........X      ",
"    ....X $..  o...o  ....X      o...o  ......o  ......o  .............X      o..........X      ",
"    ....X $..  o...o  ....X      o...o    o..........X    ....X                        o...o    ",
"    ....X $..  o...o  ....X      o...o    o..........X    ....X                        o...o    ",
"    ....X -$$  o...o  ....X      o...o    &$#......;$=    ....X             oooo*      o...o    ",
"    ....X      o...o  ....X      o...o      X......$      ....X             ....X      o...o    ",
"    ....X      o...o  XXO.oXXXXXXO.oX*      $X#..XX=      ....oXXXXXXXXXX*  XXO.oXXXXXXO.oX*    ",
"    ....X      o...o    o..........X          $..         ...............o    o..........X      ",
"    oooo*      +ooo+    +oooooooooo*          &oo         ooooooooooooooo+    +oooooooooo*      ",
"                                                                                                ",
"                                                                                                ",
"                                                                                                ",
"                                                                                                ",
"                                                                                                ",
"                                                                                                ",
"                                                                                                ",
"                                                                                                ",
"                                                                                                ",
"                                                                                                ",
"                                                                                                ",
"                                                                                                ",
"                                                                                                ",
"                                                                                                ",
"                                                                                                ",
"                                                                                                ",
"                                                                                                ",
"                                                                                                ",
"                                                                                                ",
"                                                                                                ",
"                                                                                                ",
"                                                                                                ",
"                                                                                                ",
"                                                                                                ",
"                                                                                                ",
"                                                                                                ",
"                                                                                                ",
"                                                                                                ",
"                                                                                                ",
"                                                                                                ",
"                                                                                                ",
"                                                                                                ",
"                                                                                                ",
"                                                                                                ",
"                                                                                                ",
"                                                                                                ",
"                                                                                                ",
"                                                                                                ",
"                                                                                                ",
"                                                                                                ",
"                                                                                                ",
"                                                                                                ",
"                                                                                                ",
"                                                                                                ",
"                                                                                                ",
"                                                                                                ",
"                                                                                                ",
"                                                                                                ",
"                                                                                                ",
"                                                                                                ",
"                                                                                                ",
"                                                                                                ",
"                                                                                                ",
"                                                                                                ",
"                                                                                                ",
"                                                                                                ",
"                                                                                                ",
"                                                                                                ",
"                                                                                                ",
"                                                                                                ",
"                                                                                                ",
"                                                                                                ",
"                                                                                                ",
"                                                                                                ",
"                                                                                                ",
"                                                                                                ",
"                                                                                                "
};
