/* XPM */
static char *_927e7fb026249c49d8d705a4205d8bd[] = {
/* columns rows colors chars-per-pixel */
"32 32 9 1 ",
"  c #633202",
". c black",
"X c #482D1E",
"o c #5F3A27",              
"O c #744730",
"+ c #5F5F5F",
"@ c #727272",
"# c gray50",
"$ c #865337",
/* pixels */
"              ++++              ",
"           +++####+++           ",
"         ++##########++         ",
"        +@#############+        ",
"        +@#####...######+       ",
"       +@####.......#####+      ",
"       +@###.........####+      ",
"     ++@###...........####+     ",
"    +@#####...........#####+    ",
"    +@####.............####+    ",
"   +@@###...............####+   ",
"   +@####...............####+   ",
"   +@###.................###+   ",
"   +@###.................###+   ",
"   +@###.................###+   ",
"   +@###.................###+   ",
"  +@@###.................####+  ",
"  +@@###.................####+  ",
"  +@@##...................###+  ",
"  +@@##...................###+  ",
"  +@@##...................###+  ",
"  +@@##...................###+  ",
"  +@@##...................###+  ",
" ++@###...................###++ ",
" +@@###...................####+ ",
" +@@##.....................###+ ",
" +@@##.....................###+ ",
" +@@##.....................###+ ",
" +@###.....................###+ ",
" +@###.....................###+ ",
" +@###.....................###+ ",
" +@###.....................###+ "
};
