/* XPM */
static char *_b9cdaa2a0e14dbfbdb3ce07b44a7821[] = {
/* columns rows colors chars-per-pixel */
"32 32 13 1 ",
"  c #633202",
". c #04431D",
"X c #30CC6F",
"o c #1ABA5B",
"O c #0CAA4C",
"+ c #8B1AB5",
"@ c #008636",
"# c #333907",
"$ c #8F550A",
"% c #525D09",
"& c #077634",
"* c #794706",
"= c #454D0B",
/* pixels */
"                                ",
"                                ",
"                ....            ",
"               .XXXX.           ",
"              .XXXXXX.          ",
"             .XXXXXXXX.         ",
"             .XXXXXXXX.         ",
"             .XXooooXX.         ",
"             .XoOOOOoX.         ",
"             .OOOOO+O@.         ",
"             .OOOO@@@@.         ",
"            #$.OOOOOO.          ",
"           #$$$......           ",
"          #$$$$$#X%@@#          ",
"          #$$$$.X@%%@#          ",
"         #$$$$.X@&#%%%#         ",
"         #$$$*.O@.%=%%#         ",
"         #$$**.O@.===%#         ",
"         #$$**.O@.===%#         ",
"         #$$**.@&.===%#         ",
"         #$***.&&.===%#         ",
"          #****..@===#          ",
"           #***.O@#=#           ",
"            ###.O@##.           ",
"              .XO@.&.           ",
"              .XO@.&X.          ",
"              .XO&...           ",
"              .XXXX.            ",
"               ....             ",
"                                ",
"                                ",
"                                "
};
