/* XPM */
static char *_37e4b7300a845859b41d34f6d36ed89[] = {
/* columns rows colors chars-per-pixel */
"32 32 9 1 ",
"  c #633202",
". c black",
"X c #E4C1B3",
"o c #FFE0D4",
"O c #D1B1A5",
"+ c #E7A6A3",
"@ c #F5BC9B",
"# c #B07553",
"$ c #743937",
/* pixels */
"                                ",
"                                ",
"                                ",
"                                ",
"                                ",
"                                ",
"                                ",
"                                ",
"                                ",
"        .......... ........     ",
"      ..XXXXXXXXXX.XXXXXXXX.    ",
"     .XXooooooOOO.ooooooooOX.   ",
" .  .OOOooooooooO.ooooooooOOO.  ",
".+..+Oooooooooooo.oooo.Oooooo.  ",
".++.+OoooooooooooO.oo..Oooooo.  ",
" ...+OooooooooooooO..OOo.oooo.  ",
"   .+OOOoooooooooooOOooo.oooo@. ",
"   .+oOOOOOOoooooooooooooooo@#. ",
"   .+oooOOOOOOoooooooooooooo@#. ",
"   .+ooooooooooooooooooooooo@@. ",
"    .ooooooooooooooooooooooo..  ",
"    .ooooooOOOOOOooooooooo..    ",
"    .OooOO$$$$$$$OoooOO$..      ",
"    .OoOO$$$......ooOO$.        ",
"    .OOO.$$$.    .$OOO.         ",
"     ... ...      ....          ",
"                                ",
"                                ",
"                                ",
"                                ",
"                                ",
"                                "
};
