/* XPM */
static char *_35d5c2831cd441499f23dcb7bb8ad6d[] = {
/* columns rows colors chars-per-pixel */
"32 32 10 1 ",
"  c #633202",
". c #04431D",
"X c #30CC6F",
"o c #1ABA5B",
"O c #008636",
"+ c #333907",
"@ c #8F550A",
"# c #794706",
"$ c #0CAA4C",
"% c #077634",
/* pixels */
"                                ",
"                                ",
"                                ",
"               ....             ",
"              .XXXX.            ",
"             .XXXXXX.           ",
"            .XXXXXXXX.          ",
"            .XXXXXXXX.          ",
"            .oXXXXXXo.          ",
"            .O++++++O.          ",
"            ++@@@@@@++          ",
"           +@@@@@@@@@@+         ",
"           +@@@####@@@+         ",
"          +@@########@@+        ",
"          +@##########@+        ",
"          +############+        ",
"          +############+        ",
"          +############+        ",
"          +############+        ",
"          +############+        ",
"           +##########+         ",
"            ++######++          ",
"            .$+####+$.          ",
"            .$O++++O$.          ",
"           .X$O.  .O$X.         ",
"           .X$O.  .O$X.         ",
"           .X$%.  .%$X.         ",
"           .$%%.  .%%$.         ",
"           ....    ....         ",
"                                ",
"                                ",
"                                "
};
