/* XPM */
static char *_418252bc05a401a83dfb05f4c92b0c0[] = {
/* columns rows colors chars-per-pixel */
"32 32 11 1 ",
"  c #5880CC",
". c #62ABD4",
"X c #BBC44E",
"o c #1F3736",
"O c #25131A",
"+ c #56587B",
"@ c #523B40",
"# c #8A961F",
"$ c #5C6B53",
"% c #3D253B",
"& c None",
/* pixels */
"&&OOOOOOOOOOOOOOOOOOOOOOOOOOOO&&",
"&Oo####o######o#####o##ooo####O&",
"Oo######o####o#####o####o######O",
"O########o###o#####o####o######O",
"O########oooo######oo##oo######O",
"O########%%%%#####%%%%%%o######O",
"Oo######$$$$%#####%%$$$%%######O",
"Oooooo%$$$$$$%###%%$$$$$%#####oO",
"Oo##o%$$$$$$$$%%%%$$$$$$%%###o#O",
"O####%$$$$$$$$%$$%$$$$$$%%%oo##O",
"O####%$$$$$$$$%$$%$$$$$%%%%o###O",
"Oo##o%$$$$$$$$%$$%%$$$%%%%%o###O",
"O#ooo%%$$$$$$$%%%%%%%%%%%%%o###O",
"O####%%%$$$$$%%%%%%$$$%%%###oo#O",
"O######%%%%%%%%%%%%$$$$%######oO",
"O#######%$$$%%%%%%%$$$$%#######O",
"O#######%$$$%%%%%%%%%%%%#######O",
"Oo######%%%%%%%%%%%%%%%%%######O",
"O#oo###%$$$$$%%%%%%%%%%%$$$####O",
"O###o%%$$$$$$$%%$$$%%%%%$$$ooo#O",
"O###o%$$$$$$$$%$$$$%%%%%$$$o##oO",
"O###o%$$$$$$$$%$$$$%$$$%$$$####O",
"O##oo%$$$$$$$$%$$$%$$$$$%$$####O",
"O#o###$$$$$$$$%%%%%$$$$$%%%o##oO",
"Oo#####$$$$$$%%###%$$$$$%%oooooO",
"O######$$$$$%%#####%$$$%######oO",
"O######o%%%%%%#####%%%%########O",
"O######oo##oo######oooo########O",
"O######o####o#####o###o########O",
"Oo#####o####o#####o####o#######O",
"&Oo###ooo##o#####o######o#####O&",
"&&OOOOOOOOOOOOOOOOOOOOOOOOOOOO&&"
};
