/* XPM */
static char *f947b36411d6401fb2518dc9a2b6ece9[] = {
/* columns rows colors chars-per-pixel */
"96 192 34 1 ",
"  c black",
". c #202020",
"X c white",
"o c #A0A0A0",
"O c gray25",
"+ c #C0C0C0",
"@ c #181818",
"# c #D0D0D0",
"$ c gray72",
"% c #808080",
"& c gray69",
"* c #606060",
"= c #585858",
"- c gray94",
"; c gray91",
": c gray44",
"> c gray3",
", c #101010",
"< c #04431D",
"1 c #30CC6F",
"2 c #1ABA5B",
"3 c #0CAA4C",
"4 c #8B1AB5",
"5 c #008636",
"6 c #333907",
"7 c #8F550A",
"8 c #794706",
"9 c #525D09",
"0 c #077634",
"q c #454D0B",
"w c #D8D8D8",
"e c gray88",
"r c gray19",
"t c #282828",
/* pixels */
"                                                                                                ",
"                                                                                                ",
"                                                                                                ",
"                                                                                                ",
"                                                                                                ",
"                                                                                                ",
"                                                                                                ",
"                                                                                                ",
"                                                                                                ",
"                                                                                                ",
"                                                                                                ",
"                                                                                                ",
"                                                                                                ",
"                                                                                                ",
"                                                                                                ",
"                                                                                                ",
"                                                                                                ",
"                                                                                                ",
"                                                                                                ",
"                                                                                                ",
"                                                                                                ",
"                                                                                                ",
"                                                                                                ",
"                                                                                                ",
"                                                                                                ",
"                                                                                                ",
"                                                                                                ",
"                                                                                                ",
"                                                                                                ",
"                                                                                                ",
"                                                                                                ",
"                                                                                                ",
"                                                                                                ",
"                                                                                                ",
"                                                                                                ",
"                                                                                                ",
"                                                                                                ",
"                                                                                                ",
"                                                                                                ",
"                                                                                                ",
"                                                                                                ",
"                                                                                                ",
"                                                                                                ",
"                                                                                                ",
"      .XXXXXXXo       oXXXXXXX.      .XXXXXXXXXXXXXXXXXXXO       XXXXXXX+           oXXXXXXX.   ",
"      .XXXXXXXo       oXXXXXXX.      .XXXXXXXXXXXXXXXXXXXO       XXXXXXX+           oXXXXXXX.   ",
"      .XXXXXXXo       oXXXXXXX.      .XXXXXXXXXXXXXXXXXXXO       XXXXXXX+           oXXXXXXX.   ",
"      .XXXXXXXo       oXXXXXXX.      .XXXXXXXXXXXXXXXXXXXO       XXXXXXX+           oXXXXXXX.   ",
"      .XXXXXXXo       oXXXXXXX.   XXXXXXX+           oXXXXXXX.   XXXXXXX+           oXXXXXXX.   ",
"      .XXXXXXXo       oXXXXXXX.   XXXXXXX+           oXXXXXXX.   XXXXXXX+           oXXXXXXX.   ",
"      .XXXXXXXo       oXXXXXXX.   XXXXXXX+           oXXXXXXX.   XXXXXXX+           oXXXXXXX.   ",
"      .XXXXXXXo       oXXXXXXX.   XXXXXXX+           oXXXXXXX.   XXXXXXX+           oXXXXXXX.   ",
"      .XXXXXXXo       oXXXXXXX.   XXXXXXX+           oXXXXXXX.   XXXXXXX+           oXXXXXXX.   ",
"      .XXXXXXXo       oXXXXXXX.   XXXXXXX+           oXXXXXXX.   XXXXXXX+           oXXXXXXX.   ",
"      .XXXXXXXo       oXXXXXXX.   XXXXXXX+           oXXXXXXX.   XXXXXXX+           oXXXXXXX.   ",
"      @+++#XXX$OOOOOOO$XXX#+++@   XXXXXXX+           oXXXXXXX.   XXXXXXX+           oXXXXXXX.   ",
"          OXXXXXXXXXXXXXXXO       XXXXXXX+           oXXXXXXX.   XXXXXXX+           oXXXXXXX.   ",
"          OXXXXXXXXXXXXXXXO       XXXXXXX+           oXXXXXXX.   XXXXXXX+           oXXXXXXX.   ",
"          OXXXXXXXXXXXXXXXO       XXXXXXX+           oXXXXXXX.   XXXXXXX+           oXXXXXXX.   ",
"          .%%%&XXXXXXX&%%%.       XXXXXXX+           oXXXXXXX.   XXXXXXX+           oXXXXXXX.   ",
"              *XXXXXXX*           XXXXXXX+           oXXXXXXX.   XXXXXXX+           oXXXXXXX.   ",
"              *XXXXXXX*           XXXXXXX+           oXXXXXXX.   XXXXXXX+           oXXXXXXX.   ",
"              *XXXXXXX*           XXXXXXX+           oXXXXXXX.   XXXXXXX+           oXXXXXXX.   ",
"              *XXXXXXX*           XXXXXXX+           oXXXXXXX.   XXXXXXX+           oXXXXXXX.   ",
"              *XXXXXXX*           XXXXXXX+           oXXXXXXX.   XXXXXXX+           oXXXXXXX.   ",
"              *XXXXXXX*           XXXXXXX+           oXXXXXXX.   XXXXXXX+           oXXXXXXX.   ",
"              *XXXXXXX*           XXXXXXX+           oXXXXXXX.   XXXXXXX+           oXXXXXXX.   ",
"              *XXXXXXX*           OOO=XXX-+++++++++++;XXX:OOO>   OOO=XXX-+++++++++++;XXX:OOO>   ",
"              *XXXXXXX*              .XXXXXXXXXXXXXXXXXXXO          .XXXXXXXXXXXXXXXXXXXO       ",
"              *XXXXXXX*              .XXXXXXXXXXXXXXXXXXXO          .XXXXXXXXXXXXXXXXXXXO       ",
"              *XXXXXXX*              .XXXXXXXXXXXXXXXXXXXO          .XXXXXXXXXXXXXXXXXXXO       ",
"              @OOOOOOO@              >OOOOOOOOOOOOOOOOOOO,          >OOOOOOOOOOOOOOOOOOO,       ",
"                                                                                                ",
"                                                                                                ",
"                                                                                                ",
"                                                                                                ",
"                                                                                                ",
"                                                                                                ",
"                                                                                                ",
"                                                                                                ",
"                                                                                                ",
"                                                                                                ",
"                                              <<<<                                              ",
"                                             <1111<                                             ",
"                                            <111111<                                            ",
"                                           <11111111<                                           ",
"                                           <11111111<                                           ",
"                                           <21111112<                                           ",
"                                           <32211223<                                           ",
"                                           <43522534<                                           ",
"                                           <35555553<                                           ",
"                                          67<333333<76                                          ",
"                                          678<<<<<<876                                          ",
"                                         67719655691776                                         ",
"                                         6<1596556951<6                                         ",
"                                         <150q9669q051<                                         ",
"                                         <35<qq99qq<53<                                         ",
"                                         <35<qqqqqq<53<                                         ",
"                                         <35<qqqqqq<53<                                         ",
"                                         <50<qqqqqq<05<                                         ",
"                                         <00<qqqqqq<00<                                         ",
"                                          <<56qqqq65<<                                          ",
"                                           <356qq653<                                           ",
"                                           <35666653<                                           ",
"                                          <135<  <531<                                          ",
"                                          <135<  <531<                                          ",
"                                          <130<  <031<                                          ",
"                                         <1300<  <0031<                                         ",
"                                          <<<<    <<<<                                          ",
"                                                                                                ",
"                                                                                                ",
"                                                                                                ",
"                                                                                                ",
"                                                                                                ",
"                                                                                                ",
"                                                                                                ",
"                                                                                                ",
"                                                                                                ",
"                                                                                                ",
"   XXXXXXX+   *XXX%   oXXXXXXX.      .XXXXXXXXXXXXXXXXXXXXXXX.   XXXXXXX+           oXXXXXXX.   ",
"   XXXXXXX+   *XXX%   oXXXXXXX.      .XXXXXXXXXXXXXXXXXXXXXXX.   XXXXXXX+           oXXXXXXX.   ",
"   XXXXXXX+   *XXX%   oXXXXXXX.      .XXXXXXXXXXXXXXXXXXXXXXX.   XXXXXXX+           oXXXXXXX.   ",
"   XXXXXXX+   *XXX%   oXXXXXXX.      .XXXXXXXXXXXXXXXXXXXXXXX.   XXXXXXX+           oXXXXXXX.   ",
"   XXXXXXX+   *XXX%   oXXXXXXX.              *XXXXXXX*           XXXXXXXXXXXo       oXXXXXXX.   ",
"   XXXXXXX+   *XXX%   oXXXXXXX.              *XXXXXXX*           XXXXXXXXXXXo       oXXXXXXX.   ",
"   XXXXXXX+   *XXX%   oXXXXXXX.              *XXXXXXX*           XXXXXXXXXXXo       oXXXXXXX.   ",
"   XXXXXXX+   *XXX%   oXXXXXXX.              *XXXXXXX*           XXXXXXXXXXX$OOO.   oXXXXXXX.   ",
"   XXXXXXX+   *XXX%   oXXXXXXX.              *XXXXXXX*           XXXXXXXXXXXXXXX%   oXXXXXXX.   ",
"   XXXXXXX+   *XXX%   oXXXXXXX.              *XXXXXXX*           XXXXXXXXXXXXXXX%   oXXXXXXX.   ",
"   XXXXXXX+   *XXX%   oXXXXXXX.              *XXXXXXX*           XXXXXXXXXXXXXXX%   oXXXXXXX.   ",
"   XXXXXXX+   *XXX%   oXXXXXXX.              *XXXXXXX*           XXXXXXX-+++wXXXoOOO$XXXXXXX.   ",
"   XXXXXXX+   *XXX%   oXXXXXXX.              *XXXXXXX*           XXXXXXX+   *XXXXXXXXXXXXXXX.   ",
"   XXXXXXX+   *XXX%   oXXXXXXX.              *XXXXXXX*           XXXXXXX+   *XXXXXXXXXXXXXXX.   ",
"   XXXXXXX+   *XXX%   oXXXXXXX.              *XXXXXXX*           XXXXXXX+   *XXXXXXXXXXXXXXX.   ",
"   XXXXXXXe%%%&XXX+%%%#XXXXXXX.              *XXXXXXX*           XXXXXXX+   r%%%+XXXXXXXXXXX.   ",
"   XXXXXXXXXXXXXXXXXXXXXXXXXXX.              *XXXXXXX*           XXXXXXX+       %XXXXXXXXXXX.   ",
"   XXXXXXXXXXXXXXXXXXXXXXXXXXX.              *XXXXXXX*           XXXXXXX+       %XXXXXXXXXXX.   ",
"   XXXXXXXXXXXXXXXXXXXXXXXXXXX.              *XXXXXXX*           XXXXXXX+       %XXXXXXXXXXX.   ",
"   XXXXXXXXXXX#%%%+XXXXXXXXXXX.              *XXXXXXX*           XXXXXXX+       O%%%#XXXXXXX.   ",
"   XXXXXXXXXXXo   %XXXXXXXXXXX.              *XXXXXXX*           XXXXXXX+           oXXXXXXX.   ",
"   XXXXXXXXXXXo   %XXXXXXXXXXX.              *XXXXXXX*           XXXXXXX+           oXXXXXXX.   ",
"   XXXXXXXXXXXo   %XXXXXXXXXXX.              *XXXXXXX*           XXXXXXX+           oXXXXXXX.   ",
"   OOO=XXX#OOOt   .OOO$XXX:OOO>      @+++++++wXXXXXXXw+++++++@   XXXXXXX+           oXXXXXXX.   ",
"      .XXX+           oXXXO          .XXXXXXXXXXXXXXXXXXXXXXX.   XXXXXXX+           oXXXXXXX.   ",
"      .XXX+           oXXXO          .XXXXXXXXXXXXXXXXXXXXXXX.   XXXXXXX+           oXXXXXXX.   ",
"      .XXX+           oXXXO          .XXXXXXXXXXXXXXXXXXXXXXX.   XXXXXXX+           oXXXXXXX.   ",
"      >OOOr           tOOO,          >OOOOOOOOOOOOOOOOOOOOOOO>   OOOOOOOr           tOOOOOOO>   ",
"                                                                                                ",
"                                                                                                ",
"                                                                                                ",
"                                                                                                ",
"                                                                                                ",
"                                                                                                ",
"                                                                                                ",
"                                                                                                ",
"                                                                                                ",
"                                                                                                ",
"                                                                                                ",
"                                                                                                ",
"                                                                                                ",
"                                                                                                ",
"                                                                                                ",
"                                                                                                ",
"                                                                                                ",
"                                                                                                ",
"                                                                                                ",
"                                                                                                ",
"                                                                                                ",
"                                                                                                ",
"                                                                                                ",
"                                                                                                ",
"                                                                                                ",
"                                                                                                ",
"                                                                                                ",
"                                                                                                ",
"                                                                                                ",
"                                                                                                ",
"                                                                                                ",
"                                                                                                ",
"                                                                                                ",
"                                                                                                ",
"                                                                                                ",
"                                                                                                ",
"                                                                                                ",
"                                                                                                ",
"                                                                                                ",
"                                                                                                ",
"                                                                                                ",
"                                                                                                ",
"                                                                                                ",
"                                                                                                ",
"                                                                                                "
};
